<svg aria-hidden="true" width="20" height="20" viewBox="0 0 20 20" fill="none" xmlns="http://www.w3.org/2000/svg">
<path d="M10 13C10.2761 13 10.5 13.2239 10.5 13.5V15.5C10.5 15.7761 10.2761 16 10 16C9.72386 16 9.5 15.7761 9.5 15.5V13.5C9.5 13.2239 9.72386 13 10 13Z" fill="currentColor"/>
<path d="M7.14648 12.1465C7.34175 11.9512 7.65825 11.9512 7.85352 12.1465C8.04878 12.3417 8.04878 12.6583 7.85352 12.8535L6.35352 14.3535C6.15825 14.5488 5.84175 14.5488 5.64648 14.3535C5.45122 14.1583 5.45122 13.8417 5.64648 13.6465L7.14648 12.1465Z" fill="currentColor"/>
<path d="M12.1465 12.1465C12.3417 11.9512 12.6583 11.9512 12.8535 12.1465L14.3535 13.6465C14.5488 13.8417 14.5488 14.1583 14.3535 14.3535C14.1583 14.5488 13.8417 14.5488 13.6465 14.3535L12.1465 12.8535C11.9512 12.6583 11.9512 12.3417 12.1465 12.1465Z" fill="currentColor"/>
<path d="M10 7.5C11.3807 7.5 12.5 8.61929 12.5 10C12.5 11.3807 11.3807 12.5 10 12.5C8.61929 12.5 7.5 11.3807 7.5 10C7.5 8.61929 8.61929 7.5 10 7.5Z" fill="currentColor"/>
<path d="M6.5 9.5C6.77614 9.5 7 9.72386 7 10C7 10.2761 6.77614 10.5 6.5 10.5H4.5C4.22386 10.5 4 10.2761 4 10C4 9.72386 4.22386 9.5 4.5 9.5H6.5Z" fill="currentColor"/>
<path d="M15.5 9.5C15.7761 9.5 16 9.72386 16 10C16 10.2761 15.7761 10.5 15.5 10.5H13.5C13.2239 10.5 13 10.2761 13 10C13 9.72386 13.2239 9.5 13.5 9.5H15.5Z" fill="currentColor"/>
<path d="M5.64648 5.64648C5.84175 5.45122 6.15825 5.45122 6.35352 5.64648L7.85352 7.14648C8.04878 7.34175 8.04878 7.65825 7.85352 7.85352C7.65825 8.04878 7.34175 8.04878 7.14648 7.85352L5.64648 6.35352C5.45122 6.15825 5.45122 5.84175 5.64648 5.64648Z" fill="currentColor"/>
<path d="M13.6465 5.64648C13.8417 5.45122 14.1583 5.45122 14.3535 5.64648C14.5488 5.84175 14.5488 6.15825 14.3535 6.35352L12.8535 7.85352C12.6583 8.04878 12.3417 8.04878 12.1465 7.85352C11.9512 7.65825 11.9512 7.34175 12.1465 7.14648L13.6465 5.64648Z" fill="currentColor"/>
<path d="M10 4C10.2761 4 10.5 4.22386 10.5 4.5V6.5C10.5 6.77614 10.2761 7 10 7C9.72386 7 9.5 6.77614 9.5 6.5V4.5C9.5 4.22386 9.72386 4 10 4Z" fill="currentColor"/>
</svg>
